# xmcd
#
# Track frame offsets: 
#        150
#        22907
#        43920
#        70217
#        90272
#        108735
#        126155
#        150375
#        175892
#        199420
#
# Disc length: 2880 seconds
#
# Revision: 3
# Processed by: cddbd v1.5.2PL0 Copyright (c) Steve Scherf et al.
# Submitted via: ExactAudioCopy v0.99pb5
#
DISCID=810b3e0a
DTITLE=Thanh Tuyen - Phan gai thuyen quyen
DYEAR=2011
DGENRE=Soul
TTITLE0=Gio Chuyen Mua Thuong
TTITLE1=Vung La Me Bay
TTITLE2=Phan Gai Thuyen Quyen
TTITLE3=Con Duong Xua Em Di
TTITLE4=Mua Rung
TTITLE5=Thuong Ve Mien Hoa Tuyen
TTITLE6=Suong Trang Mien Que ngoai
TTITLE7=Sau Thang Quan Truong
TTITLE8=Nhip Cau Tri Am
TTITLE9=Cay Dang Tinh Doi
EXTD=
EXTT0=
EXTT1=
EXTT2=
EXTT3=
EXTT4=
EXTT5=
EXTT6=
EXTT7=
EXTT8=
EXTT9=
PLAYORDER=
